<?xml version="1.0" encoding="UTF-8"?>
<svg id="Layer_1" data-name="Layer 1" xmlns="http://www.w3.org/2000/svg" xmlns:xlink="http://www.w3.org/1999/xlink" viewBox="0 0 114.2 136.97">
  <defs>
    <style>
      .cls-1 {
        fill: none;
      }

      .cls-2 {
        stroke: #000;
        stroke-linecap: round;
        stroke-linejoin: round;
        stroke-width: 3px;
      }

      .cls-3 {
        clip-path: url(#clippath);
      }
    </style>
    <clipPath id="clippath">
      <rect class="cls-1" x="0" width="114.2" height="136.97"/>
    </clipPath>
  </defs>
  <g class="cls-3">
    <g>
      <path d="M13.94,88.04c.58.64,1.23,1.23,1.85,1.8.19.18.39.36.58.54,3.62,3.28,6.6,7.19,8.8,11.55,3.55,7.14,7.29,14.05,10.48,19.86.9,1.61,2.1,3.03,3.54,4.18,2.7,2.18,5.66,4.04,8.8,5.52,6.73,3.16,14.33,3.96,21.57,2.28,10.04-2.17,17.12-7.6,21.05-16.14,1.56-3.37,2.78-6.88,3.64-10.5,1.73-7.05,2.61-14.28,2.63-21.54-.03-3.78-.63-6.95-1.85-9.68-.5-1.18-1.25-2.23-2.19-3.1-.94-.87-2.06-1.52-3.27-1.92-1.24-.4-2.54-.52-3.83-.37-1.29.15-2.53.57-3.65,1.24-.29.17-.58.34-.91.54l-.29.18c-1.57-3.2-3.77-5.17-6.71-6.01-2.84-.81-4.41-.49-8.65,1.84-4.15-5.37-7.74-4.9-12.09-2.26-.05-.99-.1-1.96-.14-2.91-.11-2.4-.22-4.66-.41-6.94-.43-5.24-.88-10.36-1.51-15.41-.38-2.88-1.5-5.61-3.27-7.92-1.94-2.56-4.43-3.15-7.39-1.75-1.11.49-2.08,1.26-2.82,2.22s-1.23,2.09-1.42,3.29c-.3,1.69-.44,3.43-.59,5.11-.07.86-.15,1.72-.24,2.58-1.09,10.11-.85,20.41-.61,30.36l.04,1.65c.02.84,0,1.67,0,2.63,0,.32,0,.65-.01.99l-.33-.23c-.42-.3-.78-.54-1.12-.79-4.04-2.97-8.98-4.46-13.99-4.22-3.78.12-6.17,1.57-7.31,4.43-1.31,3.31-.78,6.3,1.59,8.91h0ZM34.21,88.39c.55,1.74,1.42,2.54,2.66,2.44,1.29-.1,2.15-.91,2.49-2.35.18-.86.27-1.73.25-2.61-.01-3.12-.03-6.24-.07-9.36-.06-6.33-.11-12.87-.02-19.3.06-4.55.41-9.18.74-13.66.1-1.37.2-2.74.3-4.11,0-1.08.26-2.14.75-3.1.54-.86,1.37-1.49,2.34-1.78.31-.07,1.28.74,1.7,1.52.75,1.32,1.29,2.75,1.58,4.25.53,3.04.89,6.11,1.06,9.19.25,5.29.43,10.68.61,15.89.08,2.53.17,5.05.26,7.58v.18c0,.65.08,1.3.26,1.93.1.43.32.82.65,1.12.32.3.72.5,1.16.58.43.07.88.02,1.29-.16.4-.18.75-.47.98-.84.27-.38.48-.8.64-1.24.11-.3.24-.58.39-.86.23-.4.46-.8.68-1.21.6-1.17,1.31-2.28,2.13-3.31.27-.41.64-.72,1.09-.92.44-.2.93-.26,1.41-.18.48.08.92.29,1.28.61s.62.75.74,1.21c.4,1.14.62,2.34.67,3.54.03.31.06.61.09.91.03.5.01,1-.06,1.49-.03.26-.06.52-.08.78-.09,1.4.58,2.29,1.88,2.49,1.17.19,2.03-.39,2.42-1.63.16-.5.3-1,.44-1.51.14-.49.27-.98.42-1.46.18-.56.4-1.11.66-1.63l.12-.24c.74-1.46,1.44-2.84,3.3-2.76,2.32.09,4.04,1.24,4.83,3.24.35,1.05.57,2.13.64,3.24.04.33.07.65.11.98.03.33.04.67.02,1.01-.06.54,0,1.09.15,1.6.3.8,1.05,1.72,1.78,1.89.73.17,1.8-.35,2.41-.95.45-.49.83-1.04,1.13-1.64.19-.33.38-.67.59-.98.46-.71.99-1.36,1.58-1.96,1.05-.98,2.2-1.4,3.27-1.19.51.13.99.39,1.38.74.39.36.69.8.87,1.3.91,2.05,1.96,4.74,2.03,7.3.28,10.14-1.25,19.65-4.54,28.26-.16.43-.37.85-.57,1.26-.1.2-.19.4-.29.6h0c-5.58,13.45-24.04,16.21-34.31,12.2-7.85-3.06-13.16-8.07-16.23-15.3-2.17-5.11-4.74-10.17-6.96-14.44-2.23-4.33-5.26-8.2-8.93-11.4l-.09-.08c-.96-.78-1.83-1.64-2.62-2.59-.7-.91-.95-1.79-.71-2.48.23-.67.9-1.15,1.93-1.41,1.45-.38,2.96-.45,4.44-.21,1.51.26,2.98.71,4.37,1.34,2.1.93,3.87,2.46,5.09,4.4.55.98.97,2.02,1.25,3.11.06.22.13.43.2.65h0Z"/>
      <line class="cls-2" x1="57.1" y1="41.25" x2="73.7" y2="53.37"/>
      <line class="cls-2" x1="30.87" y1="41.25" x2="14.27" y2="53.37"/>
      <line class="cls-2" x1="56.84" y1="31.15" x2="77.34" y2="29.61"/>
      <line class="cls-2" x1="42.85" y1="22.47" x2="42.61" y2="1.91"/>
      <line class="cls-2" x1="29.69" y1="31.15" x2="9.19" y2="29.61"/>
      <line class="cls-2" x1="51.58" y1="23.95" x2="67.09" y2="10.47"/>
      <line class="cls-2" x1="33.96" y1="24.48" x2="19.44" y2="9.93"/>
    </g>
  </g>
</svg>